<?xml version="1.0" encoding="UTF-8" standalone="no"?>
<!DOCTYPE svg PUBLIC "-//W3C//DTD SVG 1.1//EN" "http://www.w3.org/Graphics/SVG/1.1/DTD/svg11.dtd">
<svg width="100%" height="100%" viewBox="0 0 1105 297" version="1.1" xmlns="http://www.w3.org/2000/svg" xmlns:xlink="http://www.w3.org/1999/xlink" xml:space="preserve" xmlns:serif="http://www.serif.com/" style="fill-rule:evenodd;clip-rule:evenodd;stroke-linejoin:round;stroke-miterlimit:2;">
    <g transform="matrix(1,0,0,1,-0.500077,-103.732)">
        <g>
            <g transform="matrix(159.838,0,0,-159.838,2.82021,201.232)">
                <path d="M-0.004,0.205C-0.038,-0.163 0.019,-0.385 0.019,-0.385L0.266,-0.266L0.419,-0.069L0.669,0.044L0.829,-0.016L0.96,-0.235L1.267,-0.485L1.429,-0.563L1.481,-0.397L1.307,0.028C1.21,0.266 0.863,0.563 0.506,0.563C0.15,0.563 -0.004,0.205 -0.004,0.205Z" style="fill:url(#_Linear1);fill-rule:nonzero;"/>
            </g>
            <g transform="matrix(-82,16,16,82,306.591,153.191)">
                <path d="M1.265,-0.381L1.304,0.191L1.256,0.292L0.615,0.381L0.389,0.327L0.367,-0.236L1.265,-0.381Z" style="fill:url(#_Linear2);fill-rule:nonzero;"/>
            </g>
            <g transform="matrix(70.3379,0,0,-70.3379,92.9265,305.731)">
                <path d="M-0.255,0.661L-0.272,0.135L-0.038,-0.491L0.474,-0.881L1.088,-0.678L1.185,-0.37L1.107,-0.242L1.066,0.223C1.059,0.111 0.995,-0.045 0.694,-0.045C0.225,-0.045 -0.038,0.881 -0.038,0.881L-0.255,0.661ZM1.066,0.223C1.071,0.285 1.057,0.334 1.057,0.334L1.066,0.223Z" style="fill:url(#_Linear3);fill-rule:nonzero;"/>
            </g>
            <g transform="matrix(82.9877,5.48688,5.48688,-82.9877,136.896,300.359)">
                <path d="M0.424,-0.242L1.153,-0.242L1.125,0.184L0.35,0.242L0.424,-0.242Z" style="fill:url(#_Linear4);fill-rule:nonzero;"/>
            </g>
            <g transform="matrix(3.3021,60.9106,60.9106,-3.3021,435.184,147.254)">
                <path d="M-0.255,-0.297L0.755,-0.297L0.714,0.299L-0.252,0.351L-0.255,-0.297Z" style="fill:url(#_Linear5);fill-rule:nonzero;"/>
            </g>
            <g transform="matrix(130.663,0,0,-130.663,314.602,162.982)">
                <path d="M-0.037,0.209L-0.005,-0.158L0.101,-0.209L0.548,-0.158L0.548,0.209L-0.037,0.209Z" style="fill:url(#_Linear6);fill-rule:nonzero;"/>
            </g>
            <g transform="matrix(-104,8,8,104,364.371,248.32)">
                <path d="M0.961,-0.267L0.957,0.193L0.829,0.267L0.265,0.246L0.23,-0.211L0.961,-0.267Z" style="fill:url(#_Linear7);fill-rule:nonzero;"/>
            </g>
            <g transform="matrix(1,0,0,1,455.76,300.399)">
                <path d="M0,-118.834L0,-166.667L58.833,31.833L56.5,47.833L46.167,47.833L0,-118.834Z" style="fill:rgb(178,73,16);fill-rule:nonzero;"/>
            </g>
            <g transform="matrix(61.88,236.818,236.818,-61.88,363.173,123.793)">
                <path d="M0.862,-0.198L0.94,-0.198L0.287,0.163L0.102,0.198L0.862,-0.198Z" style="fill:url(#_Linear8);fill-rule:nonzero;"/>
            </g>
            <g transform="matrix(144.002,0,0,-144.002,499.26,222.565)">
                <path d="M0,0.097L0.019,-0.398L0.16,-0.39L0.351,-0.126L0.649,-0.081L0.903,-0.171L1.089,-0.362C1.089,0.184 0.931,0.398 0.524,0.398C0.118,0.398 0,0.097 0,0.097Z" style="fill:url(#_Linear9);fill-rule:nonzero;"/>
            </g>
            <g transform="matrix(-44,0.666667,0.666667,44,603.574,299.917)">
                <path d="M0.558,0.362C-0.078,0.372 -0.123,-0.309 -0.123,-0.309C0.652,0.198 1.217,-0.382 1.217,-0.382C1.199,-0.094 1.194,0.353 0.558,0.362Z" style="fill:url(#_Linear10);fill-rule:nonzero;"/>
            </g>
            <g transform="matrix(114.281,-33.0257,-33.0257,-114.281,788.276,179.486)">
                <path d="M0.115,0.153L0.018,-0.182L0.053,-0.223L0.641,-0.203L0.764,0.223L0.115,0.153Z" style="fill:url(#_Linear11);fill-rule:nonzero;"/>
            </g>
            <g transform="matrix(50.9371,-26.7829,-26.7829,-50.9371,862.792,305.525)">
                <path d="M-0.142,0.198L-0.488,-0.591L-0.509,-0.63L-0.279,-0.623L0.625,-0.18L1.04,0.019L0.978,0.63L-0.142,0.198Z" style="fill:url(#_Linear12);fill-rule:nonzero;"/>
            </g>
            <g transform="matrix(-91.4646,86.7043,86.7043,91.4646,979.853,85.1509)">
                <path d="M0.881,-0.358C0.881,-0.358 1.11,-0.122 1.123,-0.102L0.881,0.363L0.507,-0.031L0.881,-0.358Z" style="fill:url(#_Linear13);fill-rule:nonzero;"/>
            </g>
            <g transform="matrix(54.3686,156.282,156.282,-54.3686,948.94,107.495)">
                <path d="M0.381,-0.229L0.651,-0.229L0.382,0.164L0.11,0.229L0.381,-0.229Z" style="fill:url(#_Linear14);fill-rule:nonzero;"/>
            </g>
            <g transform="matrix(0,-194.041,-194.041,0,294.51,369.869)">
                <path d="M0.96,-0.1L0.498,-0.12L0.498,0.043L0.946,0.075L0.928,0.473L-0.046,0.184L-0.041,-0.053L0.28,-0.03L0.287,-0.11L-0.009,-0.12L0.011,-0.33L0.96,-0.473L0.96,-0.1Z" style="fill:url(#_Linear15);fill-rule:nonzero;"/>
            </g>
            <g transform="matrix(0,-194.041,-194.041,0,443.428,369.869)">
                <path d="M0.97,0.123L0.07,0.355L0.011,0.355L0.011,0.087L0.161,0.063L0.161,-0.073L0.022,-0.111L0.027,-0.355L0.112,-0.355L0.97,-0.064L0.97,0.123ZM0.491,0L0.395,-0.035L0.395,0.044L0.491,0Z" style="fill:url(#_Linear16);fill-rule:nonzero;"/>
            </g>
            <g transform="matrix(0,-194.041,-194.041,0,579.093,369.869)">
                <path d="M0.464,0.398C0.261,0.398 0.096,0.296 0.096,0C0.096,-0.296 0.261,-0.398 0.464,-0.398C0.667,-0.398 0.831,-0.22 0.831,0C0.831,0.22 0.667,0.398 0.464,0.398ZM0.41,0.123C0.468,0.123 0.515,0.068 0.515,0C0.515,-0.068 0.468,-0.123 0.41,-0.123C0.351,-0.123 0.304,-0.092 0.304,0C0.304,0.092 0.351,0.123 0.41,0.123Z" style="fill:url(#_Linear17);fill-rule:nonzero;"/>
            </g>
            <g transform="matrix(0,-194.041,-194.041,0,714.509,369.869)">
                <path d="M0.97,0.45L0.617,0.3L0.611,0.205L0.07,0.066L0.07,-0.174L0.573,-0.184L0.588,-0.354L0.995,-0.45L0.97,0.45Z" style="fill:url(#_Linear18);fill-rule:nonzero;"/>
            </g>
            <g transform="matrix(0,-194.041,-194.041,0,948.509,369.869)">
                <path d="M1.091,-0.241L0.776,-0L1.024,0.091L1.019,0.414L0.877,0.784L0.096,0.808L0.109,0.599C0.109,0.599 0.788,0.409 0.802,0.406C0.791,0.406 0.464,0.195 0.464,0.195L0.109,0.488L0.039,0.488L0.039,0.161L0.153,0.068L0.011,-0.017L0.026,-0.341L0.382,-0.174L1.078,-0.808L1.132,-0.808L1.091,-0.241Z" style="fill:url(#_Linear19);fill-rule:nonzero;"/>
            </g>
            <g transform="matrix(0,-194.041,-194.041,0,107.1,369.869)">
                <path d="M0.539,0.52C0.211,0.471 -0.156,0.156 -0.156,-0.259C-0.156,-0.4 -0.051,-0.637 0.068,-0.637L0.243,-0.637L0.243,-0.328L0.15,-0.328C0.15,-0.328 0.088,-0.287 0.088,-0.194C0.088,-0.101 0.227,0.1 0.495,0.1C0.681,0.1 0.65,-0.055 0.65,-0.055C0.65,-0.137 0.475,-0.253 0.405,-0.253L0.405,-0.64C0.405,-0.64 1.096,-0.511 1.096,0.159C1.096,0.272 0.975,0.584 0.539,0.52Z" style="fill:url(#_Linear20);fill-rule:nonzero;"/>
            </g>
            <g transform="matrix(1,0,0,1,163.76,292.732)">
                <path d="M0,-21L44,-21C44,-21 11,-117 -81,-117C-107,-117 -141,-105 -141,-58C-141,-11 -91,96 -9,96C57,96 55,44 55,44L18,44C18,44 6,71 -19,71C-44,71 -90,31 -90,-21C-90,-66 -49,-65 -49,-65C-36,-65 -16,-54 0,-21" style="fill:rgb(62,22,121);fill-rule:nonzero;"/>
            </g>
            <g transform="matrix(1,0,0,1,219.26,367.732)">
                <path d="M0,-170.5L45,-170.5L62,-85.5L107,-85.5L107,-170.5L154,-170.5L133,-9.5L107,-9.5L102.5,-68L65.5,-68L76.5,0L51.5,0L0,-170.5Z" style="fill:rgb(62,22,121);fill-rule:nonzero;"/>
            </g>
            <g transform="matrix(1,0,0,1,428.76,244.732)">
                <path d="M0,57L10,14L17,14L27,57L0,57ZM21.5,-54.5L-1.5,-54.5L-42.5,111.5L-10.5,111.5L-2.5,82.5L30.5,82.5L39.5,107.5L75.5,105.5L21.5,-54.5Z" style="fill:rgb(62,22,121);fill-rule:nonzero;"/>
            </g>
            <g transform="matrix(1,0,0,1,579.26,242.232)">
                <path d="M0,81C-21.539,81 -39,66.673 -39,49C-39,31.327 -21.539,17 0,17C21.539,17 39,31.327 39,49C39,66.673 21.539,81 0,81M0,-17C-37.003,-17 -67,8.52 -67,40C-67,71.48 -37.003,98 0,98C58,98 67,64 67,40C67,8.52 37.003,-17 0,-17" style="fill:rgb(62,22,121);fill-rule:nonzero;"/>
            </g>
            <g transform="matrix(1,0,0,1,693.26,288.732)">
                <path d="M0,-46.5L-35,-52.5L-50,-98.5L96,-102.5L85,-40.5L43,-43.5L47.5,56L9.5,53L0,-46.5Z" style="fill:rgb(62,22,121);fill-rule:nonzero;"/>
            </g>
            <g transform="matrix(1,0,0,1,804.26,203.232)">
                <path d="M0,137L18,137L56,0L12,5L0,137Z" style="fill:rgb(62,22,121);fill-rule:nonzero;"/>
            </g>
            <g transform="matrix(1,0,0,1,860.26,169.232)">
                <path d="M0,183L54,183L79,154L93,187L140,187L110,118L223,-4L141,2L90.5,67.5L65.5,17.5L20.5,17.5L64.5,108.5L0,183Z" style="fill:rgb(62,22,121);fill-rule:nonzero;"/>
            </g>
            <g transform="matrix(9.78906,100.064,100.064,-9.78906,1042.44,74.0038)">
                <path d="M0.328,-0.549L0.788,-0.549L0.815,0.548L0.355,0.593L0.328,-0.549Z" style="fill:url(#_Linear21);fill-rule:nonzero;"/>
            </g>
            <g transform="matrix(0,174.5,174.5,0,714.509,69.0243)">
                <path d="M0.374,-0.5L0.645,-0.5L0.617,0.5L0.355,0.5L0.374,-0.5Z" style="fill:url(#_Linear22);fill-rule:nonzero;"/>
            </g>
        </g>
    </g>
    <defs>
        <linearGradient id="_Linear1" x1="0" y1="0" x2="1" y2="0" gradientUnits="userSpaceOnUse" gradientTransform="matrix(1,0,0,-1,0,0)"><stop offset="0" style="stop-color:rgb(241,201,8);stop-opacity:1"/><stop offset="0.17" style="stop-color:rgb(161,60,22);stop-opacity:1"/><stop offset="0.28" style="stop-color:rgb(113,25,37);stop-opacity:1"/><stop offset="0.43" style="stop-color:rgb(113,25,37);stop-opacity:1"/><stop offset="0.56" style="stop-color:rgb(179,74,16);stop-opacity:1"/><stop offset="0.86" style="stop-color:rgb(232,183,9);stop-opacity:1"/><stop offset="1" style="stop-color:rgb(232,183,9);stop-opacity:1"/></linearGradient>
        <linearGradient id="_Linear2" x1="0" y1="0" x2="1" y2="0" gradientUnits="userSpaceOnUse" gradientTransform="matrix(1,2.77556e-17,2.77556e-17,-1,0,1.07531e-05)"><stop offset="0" style="stop-color:rgb(241,201,8);stop-opacity:1"/><stop offset="0.01" style="stop-color:rgb(241,201,8);stop-opacity:1"/><stop offset="0.44" style="stop-color:rgb(179,74,16);stop-opacity:1"/><stop offset="0.86" style="stop-color:rgb(113,25,37);stop-opacity:1"/><stop offset="1" style="stop-color:rgb(113,25,37);stop-opacity:1"/></linearGradient>
        <linearGradient id="_Linear3" x1="0" y1="0" x2="1" y2="0" gradientUnits="userSpaceOnUse" gradientTransform="matrix(1,0,0,-1,0,-1.42171e-05)"><stop offset="0" style="stop-color:rgb(241,201,8);stop-opacity:1"/><stop offset="0.01" style="stop-color:rgb(241,201,8);stop-opacity:1"/><stop offset="0.44" style="stop-color:rgb(179,74,16);stop-opacity:1"/><stop offset="0.86" style="stop-color:rgb(113,25,37);stop-opacity:1"/><stop offset="1" style="stop-color:rgb(113,25,37);stop-opacity:1"/></linearGradient>
        <linearGradient id="_Linear4" x1="0" y1="0" x2="1" y2="0" gradientUnits="userSpaceOnUse" gradientTransform="matrix(0.997821,0.0659728,0.0659728,-0.997821,0.00163715,-0.0495771)"><stop offset="0" style="stop-color:rgb(241,201,8);stop-opacity:1"/><stop offset="0.01" style="stop-color:rgb(241,201,8);stop-opacity:1"/><stop offset="0.44" style="stop-color:rgb(179,74,16);stop-opacity:1"/><stop offset="0.86" style="stop-color:rgb(113,25,37);stop-opacity:1"/><stop offset="1" style="stop-color:rgb(113,25,37);stop-opacity:1"/></linearGradient>
        <linearGradient id="_Linear5" x1="0" y1="0" x2="1" y2="0" gradientUnits="userSpaceOnUse" gradientTransform="matrix(-0.0541328,-0.998534,-0.998534,0.0541328,0.263538,0.249638)"><stop offset="0" style="stop-color:rgb(241,201,8);stop-opacity:1"/><stop offset="0.01" style="stop-color:rgb(241,201,8);stop-opacity:1"/><stop offset="0.44" style="stop-color:rgb(179,74,16);stop-opacity:1"/><stop offset="0.86" style="stop-color:rgb(113,25,37);stop-opacity:1"/><stop offset="1" style="stop-color:rgb(113,25,37);stop-opacity:1"/></linearGradient>
        <linearGradient id="_Linear6" x1="0" y1="0" x2="1" y2="0" gradientUnits="userSpaceOnUse" gradientTransform="matrix(1,0,0,-1,0,2.22045e-16)"><stop offset="0" style="stop-color:rgb(241,201,8);stop-opacity:1"/><stop offset="0.01" style="stop-color:rgb(241,201,8);stop-opacity:1"/><stop offset="0.44" style="stop-color:rgb(179,74,16);stop-opacity:1"/><stop offset="0.86" style="stop-color:rgb(113,25,37);stop-opacity:1"/><stop offset="1" style="stop-color:rgb(113,25,37);stop-opacity:1"/></linearGradient>
        <linearGradient id="_Linear7" x1="0" y1="0" x2="1" y2="0" gradientUnits="userSpaceOnUse" gradientTransform="matrix(1,0,0,-1,0,-2.22347e-07)"><stop offset="0" style="stop-color:rgb(241,201,8);stop-opacity:1"/><stop offset="0.01" style="stop-color:rgb(241,201,8);stop-opacity:1"/><stop offset="0.44" style="stop-color:rgb(179,74,16);stop-opacity:1"/><stop offset="0.86" style="stop-color:rgb(113,25,37);stop-opacity:1"/><stop offset="1" style="stop-color:rgb(113,25,37);stop-opacity:1"/></linearGradient>
        <linearGradient id="_Linear8" x1="0" y1="0" x2="1" y2="0" gradientUnits="userSpaceOnUse" gradientTransform="matrix(0.796238,-0.604984,-0.604984,-0.796238,0.106207,0.315337)"><stop offset="0" style="stop-color:rgb(241,201,8);stop-opacity:1"/><stop offset="0.01" style="stop-color:rgb(241,201,8);stop-opacity:1"/><stop offset="0.44" style="stop-color:rgb(179,74,16);stop-opacity:1"/><stop offset="0.86" style="stop-color:rgb(113,25,37);stop-opacity:1"/><stop offset="1" style="stop-color:rgb(113,25,37);stop-opacity:1"/></linearGradient>
        <linearGradient id="_Linear9" x1="0" y1="0" x2="1" y2="0" gradientUnits="userSpaceOnUse" gradientTransform="matrix(1,0,0,-1,0,-4.34717e-06)"><stop offset="0" style="stop-color:rgb(113,25,37);stop-opacity:1"/><stop offset="0.17" style="stop-color:rgb(161,60,22);stop-opacity:1"/><stop offset="0.28" style="stop-color:rgb(241,201,8);stop-opacity:1"/><stop offset="0.43" style="stop-color:rgb(228,174,10);stop-opacity:1"/><stop offset="0.56" style="stop-color:rgb(179,74,16);stop-opacity:1"/><stop offset="0.86" style="stop-color:rgb(113,25,37);stop-opacity:1"/><stop offset="1" style="stop-color:rgb(113,25,37);stop-opacity:1"/></linearGradient>
        <linearGradient id="_Linear10" x1="0" y1="0" x2="1" y2="0" gradientUnits="userSpaceOnUse" gradientTransform="matrix(1,0,0,-1,0,-0.00955387)"><stop offset="0" style="stop-color:rgb(113,25,37);stop-opacity:1"/><stop offset="0.17" style="stop-color:rgb(161,60,22);stop-opacity:1"/><stop offset="0.28" style="stop-color:rgb(241,201,8);stop-opacity:1"/><stop offset="0.43" style="stop-color:rgb(228,174,10);stop-opacity:1"/><stop offset="0.56" style="stop-color:rgb(179,74,16);stop-opacity:1"/><stop offset="0.86" style="stop-color:rgb(113,25,37);stop-opacity:1"/><stop offset="1" style="stop-color:rgb(113,25,37);stop-opacity:1"/></linearGradient>
        <linearGradient id="_Linear11" x1="0" y1="0" x2="1" y2="0" gradientUnits="userSpaceOnUse" gradientTransform="matrix(1,5.55112e-17,5.55112e-17,-1,0,-7.3728e-06)"><stop offset="0" style="stop-color:rgb(241,201,8);stop-opacity:1"/><stop offset="0.01" style="stop-color:rgb(241,201,8);stop-opacity:1"/><stop offset="0.59" style="stop-color:rgb(113,25,37);stop-opacity:1"/><stop offset="0.97" style="stop-color:rgb(179,74,16);stop-opacity:1"/><stop offset="1" style="stop-color:rgb(179,74,16);stop-opacity:1"/></linearGradient>
        <linearGradient id="_Linear12" x1="0" y1="0" x2="1" y2="0" gradientUnits="userSpaceOnUse" gradientTransform="matrix(1,0,0,-1,0,3.271e-06)"><stop offset="0" style="stop-color:rgb(113,25,37);stop-opacity:1"/><stop offset="0.37" style="stop-color:rgb(228,174,10);stop-opacity:1"/><stop offset="0.72" style="stop-color:rgb(241,201,8);stop-opacity:1"/><stop offset="0.83" style="stop-color:rgb(161,60,22);stop-opacity:1"/><stop offset="1" style="stop-color:rgb(113,25,37);stop-opacity:1"/></linearGradient>
        <linearGradient id="_Linear13" x1="0" y1="0" x2="1" y2="0" gradientUnits="userSpaceOnUse" gradientTransform="matrix(0.74191,-0.670499,-0.670499,-0.74191,0.226449,0.588297)"><stop offset="0" style="stop-color:rgb(241,201,8);stop-opacity:1"/><stop offset="0.01" style="stop-color:rgb(241,201,8);stop-opacity:1"/><stop offset="0.44" style="stop-color:rgb(179,74,16);stop-opacity:1"/><stop offset="0.86" style="stop-color:rgb(113,25,37);stop-opacity:1"/><stop offset="1" style="stop-color:rgb(113,25,37);stop-opacity:1"/></linearGradient>
        <linearGradient id="_Linear14" x1="0" y1="0" x2="1" y2="0" gradientUnits="userSpaceOnUse" gradientTransform="matrix(0.443189,-0.896428,-0.896428,-0.443189,0.211943,0.341213)"><stop offset="0" style="stop-color:rgb(241,201,8);stop-opacity:1"/><stop offset="0.01" style="stop-color:rgb(241,201,8);stop-opacity:1"/><stop offset="0.52" style="stop-color:rgb(179,74,16);stop-opacity:1"/><stop offset="1" style="stop-color:rgb(179,74,16);stop-opacity:1"/></linearGradient>
        <linearGradient id="_Linear15" x1="0" y1="0" x2="1" y2="0" gradientUnits="userSpaceOnUse" gradientTransform="matrix(1,0,0,-1,0,1.78622e-06)"><stop offset="0" style="stop-color:rgb(45,132,63);stop-opacity:1"/><stop offset="0.32" style="stop-color:rgb(45,132,63);stop-opacity:1"/><stop offset="0.74" style="stop-color:rgb(136,22,84);stop-opacity:1"/><stop offset="1" style="stop-color:rgb(136,22,84);stop-opacity:1"/></linearGradient>
        <linearGradient id="_Linear16" x1="0" y1="0" x2="1" y2="0" gradientUnits="userSpaceOnUse" gradientTransform="matrix(1,0,0,-1,0,5.3267e-06)"><stop offset="0" style="stop-color:rgb(45,132,63);stop-opacity:1"/><stop offset="0.32" style="stop-color:rgb(45,132,63);stop-opacity:1"/><stop offset="0.74" style="stop-color:rgb(136,22,84);stop-opacity:1"/><stop offset="1" style="stop-color:rgb(136,22,84);stop-opacity:1"/></linearGradient>
        <linearGradient id="_Linear17" x1="0" y1="0" x2="1" y2="0" gradientUnits="userSpaceOnUse" gradientTransform="matrix(1,0,0,-1,0,-1.43887e-06)"><stop offset="0" style="stop-color:rgb(45,132,63);stop-opacity:1"/><stop offset="0.32" style="stop-color:rgb(45,132,63);stop-opacity:1"/><stop offset="0.74" style="stop-color:rgb(136,22,84);stop-opacity:1"/><stop offset="1" style="stop-color:rgb(136,22,84);stop-opacity:1"/></linearGradient>
        <linearGradient id="_Linear18" x1="0" y1="0" x2="1" y2="0" gradientUnits="userSpaceOnUse" gradientTransform="matrix(1,0,0,-1,0,-3.36733e-06)"><stop offset="0" style="stop-color:rgb(45,132,63);stop-opacity:1"/><stop offset="0.32" style="stop-color:rgb(45,132,63);stop-opacity:1"/><stop offset="0.74" style="stop-color:rgb(136,22,84);stop-opacity:1"/><stop offset="1" style="stop-color:rgb(136,22,84);stop-opacity:1"/></linearGradient>
        <linearGradient id="_Linear19" x1="0" y1="0" x2="1" y2="0" gradientUnits="userSpaceOnUse" gradientTransform="matrix(1,0,0,-1,0,-3.36733e-06)"><stop offset="0" style="stop-color:rgb(45,132,63);stop-opacity:1"/><stop offset="0.32" style="stop-color:rgb(45,132,63);stop-opacity:1"/><stop offset="0.74" style="stop-color:rgb(136,22,84);stop-opacity:1"/><stop offset="1" style="stop-color:rgb(136,22,84);stop-opacity:1"/></linearGradient>
        <linearGradient id="_Linear20" x1="0" y1="0" x2="1" y2="0" gradientUnits="userSpaceOnUse" gradientTransform="matrix(1,0,0,-1,0,-0.0557532)"><stop offset="0" style="stop-color:rgb(45,132,63);stop-opacity:1"/><stop offset="0.32" style="stop-color:rgb(45,132,63);stop-opacity:1"/><stop offset="0.74" style="stop-color:rgb(136,22,84);stop-opacity:1"/><stop offset="1" style="stop-color:rgb(136,22,84);stop-opacity:1"/></linearGradient>
        <linearGradient id="_Linear21" x1="0" y1="0" x2="1" y2="0" gradientUnits="userSpaceOnUse" gradientTransform="matrix(0.0973634,0.995249,0.995249,-0.0973634,0.513979,-0.566714)"><stop offset="0" style="stop-color:rgb(241,201,8);stop-opacity:1"/><stop offset="0.01" style="stop-color:rgb(241,201,8);stop-opacity:1"/><stop offset="0.59" style="stop-color:rgb(113,25,37);stop-opacity:1"/><stop offset="0.97" style="stop-color:rgb(179,74,16);stop-opacity:1"/><stop offset="1" style="stop-color:rgb(179,74,16);stop-opacity:1"/></linearGradient>
        <linearGradient id="_Linear22" x1="0" y1="0" x2="1" y2="0" gradientUnits="userSpaceOnUse" gradientTransform="matrix(0,1,1,0,0.499996,-0.499996)"><stop offset="0" style="stop-color:rgb(241,201,8);stop-opacity:1"/><stop offset="0.01" style="stop-color:rgb(241,201,8);stop-opacity:1"/><stop offset="0.44" style="stop-color:rgb(179,74,16);stop-opacity:1"/><stop offset="0.86" style="stop-color:rgb(113,25,37);stop-opacity:1"/><stop offset="1" style="stop-color:rgb(113,25,37);stop-opacity:1"/></linearGradient>
    </defs>
</svg>